<?xml version="1.0" encoding="utf-8"?>
<!-- Generator: Adobe Illustrator 24.3.0, SVG Export Plug-In . SVG Version: 6.00 Build 0)  -->
<svg version="1.1" id="Capa_1" xmlns="http://www.w3.org/2000/svg" xmlns:xlink="http://www.w3.org/1999/xlink" x="0px" y="0px"
	 viewBox="0 0 300 300" style="enable-background:new 0 0 300 300;" xml:space="preserve">
<style type="text/css">
	.st0{fill:none;stroke:#FAAA28;stroke-width:5.6011;stroke-miterlimit:10;}
	.st1{fill:none;stroke:#FAAA28;stroke-width:5.6011;stroke-linecap:round;stroke-miterlimit:10;}
</style>
<g id="login">
	<g>
		<line class="st0" x1="150.5" y1="6.4" x2="150.5" y2="49.9"/>
		<line class="st0" x1="142.6" y1="13" x2="157.6" y2="13"/>
		<path class="st0" d="M149,25.4c-3.1-2.2-6.9-3.5-10.7-3.5c-7.6,0-14.4,4.8-17.1,12l10.6,13.5"/>
		<path class="st0" d="M129,25.4c-3.1-2.2-6.8-3.5-10.6-3.5c-7.6,0-14.4,4.8-17.1,12L112,47.5h38.5"/>
		<path class="st0" d="M152,25.4c3.1-2.2,6.9-3.5,10.7-3.5c7.6,0,14.4,4.8,17.1,12l-10.6,13.5"/>
		<path class="st0" d="M171.9,25.4c3.1-2.2,6.8-3.5,10.6-3.5c7.6,0,14.4,4.8,17.1,12L189,47.5h-38.5"/>
		<line class="st0" x1="114.7" y1="60.6" x2="186.1" y2="60.6"/>
		<circle class="st0" cx="226.5" cy="74.7" r="7.1"/>
		<circle class="st0" cx="170.4" cy="98.6" r="5.1"/>
		<circle class="st0" cx="214.1" cy="134" r="5.1"/>
		<polyline class="st0" points="188.3,113.1 70.6,258.6 68.5,269.4 78.7,265 196.3,119.6 		"/>
		<line class="st0" x1="174.3" y1="101.9" x2="209" y2="130.9"/>
		<path class="st0" d="M190.3,114c0,0,8.1-25,30.4-36.6"/>
		<path class="st0" d="M225.4,81c0,0-8.2,25-30.5,36.6"/>
		<g>
			<line class="st0" x1="162.9" y1="160.9" x2="212" y2="226"/>
			<line class="st0" x1="113.8" y1="95.6" x2="156.6" y2="152.3"/>
			<line class="st0" x1="156.2" y1="169.2" x2="203.7" y2="232.2"/>
			<line class="st0" x1="105.5" y1="101.9" x2="149.9" y2="160.9"/>
			<line class="st0" x1="149.5" y1="177.5" x2="195.4" y2="238.4"/>
			<line class="st0" x1="97.2" y1="108" x2="143.1" y2="168.9"/>
			<line class="st0" x1="142.7" y1="185.8" x2="187.1" y2="244.5"/>
			<line class="st0" x1="88.8" y1="114.2" x2="136.4" y2="177.2"/>
			<line class="st0" x1="136.1" y1="194.1" x2="178.8" y2="250.8"/>
			<line class="st0" x1="80.5" y1="120.4" x2="129.7" y2="185.6"/>
		</g>
		<line class="st1" x1="76.7" y1="124.9" x2="119.1" y2="93"/>
		<line class="st1" x1="173.3" y1="252.9" x2="215.6" y2="221.1"/>
		<g>
			<line class="st0" x1="91.2" y1="65.3" x2="102.5" y2="80.1"/>
			<line class="st0" x1="82.9" y1="71.4" x2="94.2" y2="86.3"/>
			<line class="st0" x1="74.6" y1="77.7" x2="85.8" y2="92.5"/>
			<line class="st0" x1="66.3" y1="83.9" x2="77.5" y2="98.6"/>
			<line class="st1" x1="73.2" y1="102.8" x2="106.7" y2="77.7"/>
			<line class="st1" x1="79.1" y1="110" x2="112.4" y2="85"/>
		</g>
		<g>
			<line class="st0" x1="208.2" y1="273.6" x2="197" y2="258.8"/>
			<line class="st0" x1="216.5" y1="267.5" x2="205.3" y2="252.6"/>
			<line class="st0" x1="224.8" y1="261.2" x2="213.6" y2="246.5"/>
			<line class="st0" x1="233.2" y1="255" x2="221.9" y2="240.3"/>
			<line class="st1" x1="226.2" y1="236.1" x2="192.9" y2="261.2"/>
			<line class="st1" x1="220.4" y1="228.9" x2="187" y2="253.9"/>
		</g>
		<path class="st1" d="M92.5,136.2l-24-1.7c-1.2,3.5-1.7,7-1.7,10.7c0,18.8,15.3,34.1,34.1,34.1l0,0l5.8-24.3"/>
	</g>
</g>
</svg>
